PathFileType	4	(X/Y/Z)	/Users/itak/Documents/Research/Walk-IL/dataset/trc/00193_00008.trc
DataRate	CameraRate	NumFrames	NumMarkers	Units	OrigDataRate	OrigDataStartFrame	OrigNumFrames
100.000000	100.000000	4	53	mm	100.000000	574	766
Frame#	Time	RPSI			LPSI			L3			STRN			T10			C7			CLAV			RBAK			LBAK			LSHO			LUPA			LAEL			LAOL			LWTS			LWPS			LFRA			LIFD			LHPS			LHTS			RSHO			RUPA			RAEL			RAOL			RWTS			RWPS			RFRA			RIFD			RHTS			RHPS			RBHD			LFHD			RFHD			LBHD			LHIP			RHIP			RASI			LASI			LKNE			LTHI			LANK			LTIP			LTOE			LMT1			LMT5			LHEE			RKNE			RTHI			RANK			RTIP			RTOE			RMT1			RMT5			RHEE			
		X1	Y1	Z1	X2	Y2	Z2	X3	Y3	Z3	X4	Y4	Z4	X5	Y5	Z5	X6	Y6	Z6	X7	Y7	Z7	X8	Y8	Z8	X9	Y9	Z9	X10	Y10	Z10	X11	Y11	Z11	X12	Y12	Z12	X13	Y13	Z13	X14	Y14	Z14	X15	Y15	Z15	X16	Y16	Z16	X17	Y17	Z17	X18	Y18	Z18	X19	Y19	Z19	X20	Y20	Z20	X21	Y21	Z21	X22	Y22	Z22	X23	Y23	Z23	X24	Y24	Z24	X25	Y25	Z25	X26	Y26	Z26	X27	Y27	Z27	X28	Y28	Z28	X29	Y29	Z29	X30	Y30	Z30	X31	Y31	Z31	X32	Y32	Z32	X33	Y33	Z33	X34	Y34	Z34	X35	Y35	Z35	X36	Y36	Z36	X37	Y37	Z37	X38	Y38	Z38	X39	Y39	Z39	X40	Y40	Z40	X41	Y41	Z41	X42	Y42	Z42	X43	Y43	Z43	X44	Y44	Z44	X45	Y45	Z45	X46	Y46	Z46	X47	Y47	Z47	X48	Y48	Z48	X49	Y49	Z49	X50	Y50	Z50	X51	Y51	Z51	X52	Y52	Z52	X53	Y53	Z53	

575	5.74	782.2908935546875	1046.202880859375	335.8817138671875	899.6299438476562	1050.77001953125	371.2165832519531	835.031982421875	1086.163940429688	352.7539672851562	770.2006225585938	1306.977783203125	599.7252807617188	846.2686157226562	1244.822387695312	311.1388854980469	843.19189453125	1516.36572265625	370.2055053710938	787.3322143554688	1419.892822265625	570.0476684570312	753.8014526367188	1339.025146484375	281.8300170898438	939.68408203125	1491.891967773438	389.0037536621094	997.8304443359375	1483.458374023438	480.9220886230469	1074.067016601562	1349.983520507812	459.4661254882812	1087.58837890625	1133.940185546875	467.1419677734375	1014.301391601562	1116.063720703125	419.4582824707031	1062.53466796875	909.8675537109375	592.5661010742188	1096.842651367188	882.1553955078125	510.1365356445312	1101.156372070312	1023.478942871094	485.3591613769531	1024.36083984375	744.0306396484375	612.6097412109375	1093.0771484375	814.2828979492188	536.9615478515625	1082.786254882812	831.2718505859375	607.2098999023438	652.0846557617188	1497.577392578125	384.5499572753906	591.3287963867188	1431.380615234375	346.4239501953125	540.9046630859375	1138.34814453125	324.2877197265625	637.1102294921875	1136.608032226562	344.7708129882812	535.2477416992188	966.7767944335938	530.3020629882812	510.5100402832031	918.4324951171875	458.1670837402344	519.1060180664062	1068.742431640625	363.6698913574219	562.7715454101562	802.7850952148438	618.9214477539062	523.3447265625	888.2542724609375	585.7127685546875	510.1096801757812	850.658203125	514.824462890625	757.5877685546875	1679.363159179688	415.2597045898438	781.4107666015625	1710.99658203125	630.5343627929688	670.091064453125	1695.921752929688	564.5473022460938	877.5661010742188	1704.12890625	476.695556640625	988.2445068359375	1002.067626953125	506.2777404785156	619.5632934570312	998.578857421875	452.4618530273438	649.8046264648438	1036.89453125	543.8424682617188	899.5033569335938	1044.997680664062	610.028076171875	954.2491455078125	520.2415771484375	688.4916381835938	974.9738159179688	661.2080078125	647.9935913085938	1057.802978515625	153.688720703125	382.0284729003906	1015.644836425781	341.5117797851562	551.3554077148438	1000.447265625	60.99508285522461	566.368408203125	960.7595825195312	80.29611206054688	515.8919067382812	1076.787231445312	89.555419921875	473.3599853515625	998.1624145507812	182.26025390625	330.0861511230469	700.9107666015625	504.4880676269531	547.72900390625	620.1848754882812	768.8746948242188	529.9568481445312	811.5485229492188	33.14840316772461	506.7830505371094	730.6182250976562	386.6877136230469	574.90771484375	734.103759765625	49.29925918579102	716.2374877929688	798.0836181640625	42.4048957824707	689.7098388671875	726.833251953125	40.64194107055664	587.56591796875	895.3429565429688	31.00061798095703	495.0278930664062	
576	5.75	781.8035278320312	1045.918212890625	341.1987609863281	898.5733032226562	1051.029174804688	378.462890625	834.209716796875	1086.247192382812	358.7228088378906	765.7537841796875	1307.012939453125	604.8494873046875	845.528564453125	1245.19384765625	317.3746948242188	841.885009765625	1516.624145507812	376.6177062988281	783.6259765625	1420.066528320312	575.9202270507812	753.3776245117188	1339.565063476562	287.0254821777344	938.1124877929688	1491.887939453125	396.4691162109375	994.9743041992188	1483.259887695312	489.4411315917969	1071.692504882812	1349.99560546875	468.8919677734375	1086.1162109375	1134.128784179688	477.3963317871094	1013.567749023438	1115.688354492188	428.8265075683594	1060.055541992188	912.1201171875	605.9669189453125	1095.096923828125	882.8937377929688	524.3611450195312	1099.70703125	1023.844482421875	497.2754211425781	1022.384155273438	747.0381469726562	629.4326171875	1091.25732421875	815.5646362304688	552.4998168945312	1080.511840820312	834.0233154296875	622.3056640625	650.5514526367188	1498.156494140625	388.7571716308594	590.0062255859375	1432.0390625	349.9546508789062	539.6512451171875	1138.749389648438	328.1443481445312	635.7780151367188	1137.112060546875	348.9605712890625	533.6478881835938	967.9339599609375	534.8013916015625	508.8886108398438	919.3328247070312	462.8214111328125	517.784423828125	1069.2509765625	367.6977233886719	560.9983520507812	804.26123046875	624.026611328125	521.6415405273438	889.5694580078125	590.4501953125	508.4372253417969	851.7998657226562	519.753173828125	755.9522705078125	1679.659423828125	420.9857788085938	778.1056518554688	1711.209716796875	636.350830078125	667.309814453125	1696.523315429688	569.6163330078125	875.509765625	1704.098876953125	483.3869323730469	984.8475952148438	1002.817565917969	515.3161010742188	617.456787109375	998.2138061523438	454.4112548828125	645.5426635742188	1036.773071289062	546.3816528320312	894.00830078125	1045.649169921875	617.0364379882812	944.8187866210938	522.3404541015625	701.3903198242188	967.2646484375	662.8413696289062	659.7763061523438	1053.456787109375	145.4721374511719	409.4857482910156	1008.523071289062	338.9845886230469	571.172607421875	991.42529296875	60.57665252685547	595.8405151367188	953.2423706054688	78.09120178222656	543.814697265625	1069.981567382812	85.06728363037109	503.6955871582031	995.2996826171875	172.19921875	354.837890625	699.512939453125	503.9511413574219	548.3931884765625	617.7260131835938	768.1454467773438	531.37841796875	811.526123046875	33.17768859863281	506.7921752929688	729.5156860351562	386.1422424316406	575.5849609375	733.6414184570312	48.21922302246094	716.4744262695312	797.9403076171875	42.14413070678711	689.92529296875	726.6341552734375	40.38448333740234	587.5224609375	895.2816772460938	31.04723358154297	495.2101135253906	
577	5.76	781.4248046875	1045.554321289062	346.4989929199219	897.5593872070312	1051.192016601562	385.7566223144531	833.4803466796875	1086.193359375	364.6635131835938	761.1698608398438	1306.998291015625	609.6905517578125	844.8394165039062	1245.480834960938	323.6047058105469	840.5780029296875	1516.7890625	383.0333862304688	779.8732299804688	1420.18212890625	581.7468872070312	753.0305786132812	1340.00830078125	292.1812438964844	936.559326171875	1491.884643554688	403.9785766601562	992.0372314453125	1482.960205078125	498.0318298339844	1069.26220703125	1349.936767578125	478.4347229003906	1084.642211914062	1134.29638671875	487.8768005371094	1012.891845703125	1115.227294921875	438.3900451660156	1057.476440429688	914.2614135742188	619.3286743164062	1093.505004882812	883.6885986328125	538.6403198242188	1098.289306640625	1024.227172851562	509.3733825683594	1020.334045410156	749.8843383789062	645.7966918945312	1089.553344726562	816.8829345703125	567.9722290039062	1078.131591796875	836.6759643554688	637.2899169921875	649.0460815429688	1498.638671875	392.8558959960938	588.7366333007812	1432.596801757812	353.3558959960938	538.474609375	1139.062866210938	331.8340759277344	634.5079956054688	1137.520385742188	353.0422058105469	531.9730224609375	968.8359375	538.9757080078125	507.2653503417969	920.0465698242188	467.0940246582031	516.5152587890625	1069.652954101562	371.4993286132812	559.1110229492188	805.3705444335938	628.6640014648438	519.82666015625	890.56103515625	594.7688598632812	506.7174377441406	852.7069091796875	524.2274780273438	754.313232421875	1679.889404296875	426.6776733398438	774.7445068359375	1711.295776367188	642.1320190429688	664.5047607421875	1697.044921875	574.6705932617188	873.4212646484375	1703.972534179688	490.0924377441406	981.3856811523438	1003.450317382812	524.3549194335938	615.438720703125	997.8419189453125	456.27587890625	641.3369140625	1036.58837890625	548.821533203125	888.4579467773438	1046.209106445312	623.96044921875	935.2388305664062	524.2931518554688	713.7800903320312	959.4100341796875	664.3515014648438	671.2053833007812	1048.5244140625	137.2792663574219	437.2409362792969	1001.043395996094	336.4132690429688	590.875244140625	981.0988159179688	60.20200347900391	624.9466552734375	944.6275024414062	76.06044769287109	571.4749145507812	1062.142822265625	80.57168579101562	534.0916137695312	992.0858764648438	162.2550354003906	379.9166564941406	698.113037109375	503.4207763671875	549.1004638671875	615.2911376953125	767.4598999023438	532.7460327148438	811.5318603515625	33.20107269287109	506.8134155273438	728.47265625	385.5510864257812	576.3252563476562	733.1555786132812	47.19233703613281	716.6760864257812	797.7744140625	41.89428329467773	690.1396484375	726.4249877929688	40.13780212402344	587.4876098632812	895.1972045898438	31.07675552368164	495.4303894042969	
578	5.77	781.1468505859375	1045.149047851562	351.7760314941406	896.586669921875	1051.245849609375	393.0520629882812	832.8251342773438	1085.9990234375	370.5792541503906	756.4688720703125	1306.932373046875	614.2920532226562	844.1978759765625	1245.682861328125	329.8336486816406	839.2579956054688	1516.857055664062	389.465087890625	776.0564575195312	1420.223510742188	587.4772338867188	752.7528076171875	1340.35400390625	297.3023681640625	935.0070190429688	1491.880859375	411.5605163574219	989.0230102539062	1482.580444335938	506.6595153808594	1066.76953125	1349.819580078125	488.0820007324219	1083.150024414062	1134.450439453125	498.5703125	1012.257202148438	1114.692993164062	448.1337585449219	1054.79638671875	916.279052734375	632.6240844726562	1092.02392578125	884.5279541015625	552.9301147460938	1096.880126953125	1024.628173828125	521.6270751953125	1018.200134277344	752.5252075195312	661.6859130859375	1087.9345703125	818.2202758789062	583.3361206054688	1075.646484375	839.2105712890625	652.1292114257812	647.56298828125	1499.02001953125	396.8543701171875	587.517578125	1433.046997070312	356.6416015625	537.3734130859375	1139.286254882812	335.3555297851562	633.2918090820312	1137.827026367188	357.0221862792969	530.2178955078125	969.4873657226562	542.8330688476562	505.6355895996094	920.5770263671875	470.9932556152344	515.2926025390625	1069.94482421875	375.0757446289062	557.118896484375	806.1211547851562	632.8538208007812	517.9011840820312	891.2420043945312	598.68603515625	504.9451293945312	853.3739624023438	528.2552490234375	752.6625366210938	1680.064208984375	432.34326171875	771.3379516601562	1711.255859375	647.901123046875	661.6697387695312	1697.479736328125	579.7224731445312	871.2880859375	1703.756591796875	496.8091430664062	977.869384765625	1003.973022460938	533.4210815429688	613.4923706054688	997.478515625	458.0711059570312	637.2083740234375	1036.355834960938	551.1785888671875	882.8641967773438	1046.676879882812	630.8090209960938	925.5128173828125	526.0907592773438	725.68408203125	951.431396484375	665.7293701171875	682.2979125976562	1042.951171875	129.1884460449219	465.2311096191406	993.1895141601562	333.8543395996094	610.438720703125	969.4927978515625	59.92441558837891	653.6165161132812	934.8834838867188	74.15247344970703	598.7348022460938	1053.261474609375	76.14522552490234	564.46435546875	988.4586181640625	152.5221862792969	405.2804870605469	696.70166015625	502.8926391601562	549.8372192382812	612.8336181640625	766.8101806640625	534.0506591796875	811.5532836914062	33.22026062011719	506.8397521972656	727.485107421875	384.9230346679688	577.1150512695312	732.6687622070312	46.27303695678711	716.8284912109375	797.5730590820312	41.67169189453125	690.3244018554688	726.19677734375	39.90147399902344	587.4498291015625	895.1029052734375	31.08570671081543	495.6736145019531	
